<svg xmlns="http://www.w3.org/2000/svg" viewBox="0 0 16 16"><path fill="#fff" d="M8 0a8 8 0 00-2.53 15.6c.4.07.55-.17.55-.38v-1.3c-2.26.49-2.73-1.09-2.73-1.09-.36-.91-.88-1.15-.88-1.15-.72-.49.05-.48.05-.48.8.06 1.22.83 1.22.83.71 1.22 1.86.87 2.31.67.07-.52.28-.87.5-1.07-1.8-.2-3.69-.9-3.69-4a3.1 3.1 0 01.83-2.15c-.08-.2-.36-1.03.08-2.14 0 0 .68-.22 2.22.82A7.6 7.6 0 018 4.68a7.6 7.6 0 012.02.27c1.54-1.04 2.22-.82 2.22-.82.44 1.11.16 1.94.08 2.14.52.57.83 1.32.83 2.15 0 3.1-1.9 3.8-3.71 4 .28.25.54.74.54 1.49v2.2c0 .21.15.45.55.38A8 8 0 008 0z"/></svg>